# xmcd
#
# Track frame offsets: 
#        300
#        29857
#        57156
#        87657
#        117378
#        148176
#        167759
#        210656
#        235873
#        268663
#        285386
#        307963
#
# Disc length: 4530 seconds
#
# Revision: 0
# Processed by: cddbd v1.5.2PL0 Copyright (c) Steve Scherf et al.
# Submitted via: ExactAudioCopy v1.0b1
#
DISCID=b611ae0c
DTITLE=Robert Cray Band - Cookin' In Mobile
DYEAR=2010
DGENRE=Contemporary Blues
TTITLE0=Our Last Time
TTITLE1=Anytime
TTITLE2=Love 2009
TTITLE3=Right Next Door
TTITLE4=Chicken In The Kitchen
TTITLE5=Sitting On Top Of The World
TTITLE6=One In The Middle
TTITLE7=Whole Lotta Love
TTITLE8=Smoking Gun
TTITLE9=I Can't Fail
TTITLE10=That's What Keeps Me Rockin'
TTITLE11=Time Makes Two
EXTD=
EXTT0=
EXTT1=
EXTT2=
EXTT3=
EXTT4=
EXTT5=
EXTT6=
EXTT7=
EXTT8=
EXTT9=
EXTT10=
EXTT11=
PLAYORDER=
